<?xml version="1.0" standalone="no"?><svg xmlns:xlink="http://www.w3.org/1999/xlink" xmlns="http://www.w3.org/2000/svg" viewBox="0 0 1000 700" preserveAspectRatio="xMaxYMax slice"><g transform="scale(1.25)"><rect x="0" y="0" width="800" height="560" fill="#ffffff"/><rect x="0" y="0" width="80" height="80" fill="#ffffff"/><circle cx="20" cy="20" r="20" fill="#ffe8b2"/><circle cx="60" cy="20" r="20" fill="#b5bafc"/><circle cx="20" cy="60" r="20" fill="#ffd87e"/><circle cx="60" cy="60" r="20" fill="#eceefe"/><rect x="80" y="0" width="80" height="80" fill="#ffffff"/><circle cx="100" cy="20" r="20" fill="#ffd26b"/><circle cx="140" cy="20" r="20" fill="#9da4fb"/><circle cx="100" cy="60" r="20" fill="#8890fa"/><circle cx="140" cy="60" r="20" fill="#ffcb54"/><rect x="160" y="0" width="80" height="80" fill="#ffffff"/><circle cx="180" cy="20" r="20" fill="#ffe099"/><circle cx="220" cy="20" r="20" fill="#ffefc9"/><circle cx="180" cy="60" r="20" fill="#ffecc1"/><circle cx="220" cy="60" r="20" fill="#5f6af8"/><rect x="240" y="0" width="80" height="80" fill="#ffffff"/><circle cx="260" cy="20" r="20" fill="#ffeab9"/><circle cx="300" cy="20" r="20" fill="#ffdf95"/><circle cx="260" cy="60" r="20" fill="#ffecbf"/><circle cx="300" cy="60" r="20" fill="#ffe29e"/><circle cx="360" cy="40" r="40" fill="#c0c4fc"/><rect x="400" y="0" width="80" height="80" fill="#ffffff"/><circle cx="420" cy="20" r="20" fill="#d1d4fd"/><circle cx="460" cy="20" r="20" fill="#ffd77a"/><circle cx="420" cy="60" r="20" fill="#fffdfa"/><circle cx="460" cy="60" r="20" fill="#ffd167"/><rect x="480" y="0" width="80" height="80" fill="#ffffff"/><circle cx="500" cy="20" r="20" fill="#bdc1fc"/><circle cx="540" cy="20" r="20" fill="#bbbffc"/><circle cx="500" cy="60" r="20" fill="#fff4dc"/><circle cx="540" cy="60" r="20" fill="#fff1d0"/><circle cx="600" cy="40" r="40" fill="#888ffa"/><rect x="640" y="0" width="80" height="80" fill="#ffffff"/><circle cx="660" cy="20" r="20" fill="#aab0fb"/><circle cx="700" cy="20" r="20" fill="#dee0fe"/><circle cx="660" cy="60" r="20" fill="#ffe5aa"/><circle cx="700" cy="60" r="20" fill="#ffdb86"/><circle cx="760" cy="40" r="40" fill="#ffcd5a"/><rect x="0" y="80" width="80" height="80" fill="#ffffff"/><circle cx="20" cy="100" r="20" fill="#f3f4ff"/><circle cx="60" cy="100" r="20" fill="#5f69f8"/><circle cx="20" cy="140" r="20" fill="#eeeffe"/><circle cx="60" cy="140" r="20" fill="#d9dcfd"/><circle cx="120" cy="120" r="40" fill="#d2d5fd"/><rect x="160" y="80" width="80" height="80" fill="#ffffff"/><circle cx="180" cy="100" r="20" fill="#606af8"/><circle cx="220" cy="100" r="20" fill="#ffd87c"/><circle cx="180" cy="140" r="20" fill="#ffcb52"/><circle cx="220" cy="140" r="20" fill="#8e95fa"/><rect x="240" y="80" width="80" height="80" fill="#ffffff"/><circle cx="260" cy="100" r="20" fill="#8890fa"/><circle cx="300" cy="100" r="20" fill="#ffdd8d"/><circle cx="260" cy="140" r="20" fill="#6c76f9"/><circle cx="300" cy="140" r="20" fill="#ffdd90"/><rect x="320" y="80" width="80" height="80" fill="#ffffff"/><circle cx="340" cy="100" r="20" fill="#fffbf2"/><circle cx="380" cy="100" r="20" fill="#d8dbfd"/><circle cx="340" cy="140" r="20" fill="#ffd678"/><circle cx="380" cy="140" r="20" fill="#dee0fe"/><circle cx="440" cy="120" r="40" fill="#ffce5b"/><circle cx="520" cy="120" r="40" fill="#ffe4a5"/><rect x="560" y="80" width="80" height="80" fill="#ffffff"/><circle cx="580" cy="100" r="20" fill="#757ef9"/><circle cx="620" cy="100" r="20" fill="#ffda85"/><circle cx="580" cy="140" r="20" fill="#ffe3a2"/><circle cx="620" cy="140" r="20" fill="#b7bcfc"/><circle cx="680" cy="120" r="40" fill="#fff1d2"/><rect x="720" y="80" width="80" height="80" fill="#ffffff"/><circle cx="740" cy="100" r="20" fill="#a6acfb"/><circle cx="780" cy="100" r="20" fill="#abb1fc"/><circle cx="740" cy="140" r="20" fill="#5c67f8"/><circle cx="780" cy="140" r="20" fill="#ffe5a7"/><rect x="0" y="160" width="80" height="80" fill="#ffffff"/><circle cx="20" cy="180" r="20" fill="#a8aefb"/><circle cx="60" cy="180" r="20" fill="#a1a7fb"/><circle cx="20" cy="220" r="20" fill="#ffd574"/><circle cx="60" cy="220" r="20" fill="#6f79f9"/><circle cx="120" cy="200" r="40" fill="#ffefcb"/><rect x="160" y="160" width="80" height="80" fill="#ffffff"/><circle cx="180" cy="180" r="20" fill="#ffe7ae"/><circle cx="220" cy="180" r="20" fill="#fffaed"/><circle cx="180" cy="220" r="20" fill="#ffe9b5"/><circle cx="220" cy="220" r="20" fill="#fff9ec"/><circle cx="280" cy="200" r="40" fill="#cbcffd"/><circle cx="360" cy="200" r="40" fill="#ffe8b4"/><circle cx="440" cy="200" r="40" fill="#ffd982"/><circle cx="520" cy="200" r="40" fill="#ffd574"/><rect x="560" y="160" width="80" height="80" fill="#ffffff"/><circle cx="580" cy="180" r="20" fill="#7e86fa"/><circle cx="620" cy="180" r="20" fill="#ffe29f"/><circle cx="580" cy="220" r="20" fill="#edeefe"/><circle cx="620" cy="220" r="20" fill="#a1a8fb"/><circle cx="680" cy="200" r="40" fill="#fff6e2"/><rect x="720" y="160" width="80" height="80" fill="#ffffff"/><circle cx="740" cy="180" r="20" fill="#e8e9fe"/><circle cx="780" cy="180" r="20" fill="#8d95fa"/><circle cx="740" cy="220" r="20" fill="#b2b7fc"/><circle cx="780" cy="220" r="20" fill="#848cfa"/><circle cx="40" cy="280" r="40" fill="#eff0fe"/><rect x="80" y="240" width="80" height="80" fill="#ffffff"/><circle cx="100" cy="260" r="20" fill="#fff4db"/><circle cx="140" cy="260" r="20" fill="#9ba2fb"/><circle cx="100" cy="300" r="20" fill="#7079f9"/><circle cx="140" cy="300" r="20" fill="#afb4fc"/><rect x="160" y="240" width="80" height="80" fill="#ffffff"/><circle cx="180" cy="260" r="20" fill="#fff5de"/><circle cx="220" cy="260" r="20" fill="#d4d7fd"/><circle cx="180" cy="300" r="20" fill="#fff0cf"/><circle cx="220" cy="300" r="20" fill="#636df9"/><circle cx="280" cy="280" r="40" fill="#dee0fe"/><circle cx="360" cy="280" r="40" fill="#ffce5d"/><circle cx="440" cy="280" r="40" fill="#ffe3a1"/><circle cx="520" cy="280" r="40" fill="#ffe29d"/><circle cx="600" cy="280" r="40" fill="#ffe3a3"/><rect x="640" y="240" width="80" height="80" fill="#ffffff"/><circle cx="660" cy="260" r="20" fill="#b7bcfc"/><circle cx="700" cy="260" r="20" fill="#e0e2fe"/><circle cx="660" cy="300" r="20" fill="#ffe8b4"/><circle cx="700" cy="300" r="20" fill="#8089fa"/><circle cx="760" cy="280" r="40" fill="#fffaef"/><rect x="0" y="320" width="80" height="80" fill="#ffffff"/><circle cx="20" cy="340" r="20" fill="#9299fa"/><circle cx="60" cy="340" r="20" fill="#ffe29e"/><circle cx="20" cy="380" r="20" fill="#ffdc8b"/><circle cx="60" cy="380" r="20" fill="#fff7e4"/><rect x="80" y="320" width="80" height="80" fill="#ffffff"/><circle cx="100" cy="340" r="20" fill="#fffcf5"/><circle cx="140" cy="340" r="20" fill="#ffce5d"/><circle cx="100" cy="380" r="20" fill="#ffefc8"/><circle cx="140" cy="380" r="20" fill="#ffd470"/><rect x="160" y="320" width="80" height="80" fill="#ffffff"/><circle cx="180" cy="340" r="20" fill="#c2c6fc"/><circle cx="220" cy="340" r="20" fill="#ffdc8c"/><circle cx="180" cy="380" r="20" fill="#ffd36f"/><circle cx="220" cy="380" r="20" fill="#ffd87f"/><rect x="240" y="320" width="80" height="80" fill="#ffffff"/><circle cx="260" cy="340" r="20" fill="#ffe8b3"/><circle cx="300" cy="340" r="20" fill="#ffe09a"/><circle cx="260" cy="380" r="20" fill="#fff7e3"/><circle cx="300" cy="380" r="20" fill="#fff0cd"/><circle cx="360" cy="360" r="40" fill="#e8eafe"/><circle cx="440" cy="360" r="40" fill="#8d95fa"/><circle cx="520" cy="360" r="40" fill="#ffeec6"/><rect x="560" y="320" width="80" height="80" fill="#ffffff"/><circle cx="580" cy="340" r="20" fill="#ffd470"/><circle cx="620" cy="340" r="20" fill="#ffce5c"/><circle cx="580" cy="380" r="20" fill="#979efb"/><circle cx="620" cy="380" r="20" fill="#8f97fa"/><circle cx="680" cy="360" r="40" fill="#ffecbe"/><circle cx="760" cy="360" r="40" fill="#ffd678"/><circle cx="40" cy="440" r="40" fill="#ffd269"/><rect x="80" y="400" width="80" height="80" fill="#ffffff"/><circle cx="100" cy="420" r="20" fill="#9fa5fb"/><circle cx="140" cy="420" r="20" fill="#e7e8fe"/><circle cx="100" cy="460" r="20" fill="#edeffe"/><circle cx="140" cy="460" r="20" fill="#ffd678"/><rect x="160" y="400" width="80" height="80" fill="#ffffff"/><circle cx="180" cy="420" r="20" fill="#ffecbe"/><circle cx="220" cy="420" r="20" fill="#ffe3a3"/><circle cx="180" cy="460" r="20" fill="#b9befc"/><circle cx="220" cy="460" r="20" fill="#ffcc57"/><rect x="240" y="400" width="80" height="80" fill="#ffffff"/><circle cx="260" cy="420" r="20" fill="#fff3d8"/><circle cx="300" cy="420" r="20" fill="#7e87fa"/><circle cx="260" cy="460" r="20" fill="#ffedc5"/><circle cx="300" cy="460" r="20" fill="#ffdb87"/><circle cx="360" cy="440" r="40" fill="#ffefca"/><circle cx="440" cy="440" r="40" fill="#a7adfb"/><rect x="480" y="400" width="80" height="80" fill="#ffffff"/><circle cx="500" cy="420" r="20" fill="#f8f8ff"/><circle cx="540" cy="420" r="20" fill="#ffe9b4"/><circle cx="500" cy="460" r="20" fill="#5a64f8"/><circle cx="540" cy="460" r="20" fill="#fff1cf"/><circle cx="600" cy="440" r="40" fill="#d9dbfd"/><rect x="640" y="400" width="80" height="80" fill="#ffffff"/><circle cx="660" cy="420" r="20" fill="#fdfdff"/><circle cx="700" cy="420" r="20" fill="#a1a7fb"/><circle cx="660" cy="460" r="20" fill="#949bfb"/><circle cx="700" cy="460" r="20" fill="#b6bbfc"/><rect x="720" y="400" width="80" height="80" fill="#ffffff"/><circle cx="740" cy="420" r="20" fill="#a9affb"/><circle cx="780" cy="420" r="20" fill="#969dfb"/><circle cx="740" cy="460" r="20" fill="#f6f7ff"/><circle cx="780" cy="460" r="20" fill="#e7e9fe"/><circle cx="40" cy="520" r="40" fill="#fff4da"/><circle cx="120" cy="520" r="40" fill="#afb4fc"/><circle cx="200" cy="520" r="40" fill="#fff8e7"/><circle cx="280" cy="520" r="40" fill="#ced1fd"/><circle cx="360" cy="520" r="40" fill="#fffdfa"/><rect x="400" y="480" width="80" height="80" fill="#ffffff"/><circle cx="420" cy="500" r="20" fill="#ffe4a5"/><circle cx="460" cy="500" r="20" fill="#ffd981"/><circle cx="420" cy="540" r="20" fill="#ffefca"/><circle cx="460" cy="540" r="20" fill="#606af8"/><circle cx="520" cy="520" r="40" fill="#ced2fd"/><rect x="560" y="480" width="80" height="80" fill="#ffffff"/><circle cx="580" cy="500" r="20" fill="#e6e8fe"/><circle cx="620" cy="500" r="20" fill="#6872f9"/><circle cx="580" cy="540" r="20" fill="#5c66f8"/><circle cx="620" cy="540" r="20" fill="#d3d6fd"/><rect x="640" y="480" width="80" height="80" fill="#ffffff"/><circle cx="660" cy="500" r="20" fill="#ffe6ab"/><circle cx="700" cy="500" r="20" fill="#5762f8"/><circle cx="660" cy="540" r="20" fill="#d7d9fd"/><circle cx="700" cy="540" r="20" fill="#fffbf2"/><rect x="720" y="480" width="80" height="80" fill="#ffffff"/><circle cx="740" cy="500" r="20" fill="#ffd77b"/><circle cx="780" cy="500" r="20" fill="#ffe5a9"/><circle cx="740" cy="540" r="20" fill="#fff9ea"/><circle cx="780" cy="540" r="20" fill="#ffe097"/></g></svg>